<?xml version="1.0" encoding="utf-8"?>
<!-- Generator: Adobe Illustrator 26.3.1, SVG Export Plug-In . SVG Version: 6.00 Build 0)  -->
<svg version="1.1" id="Layer_1" xmlns="http://www.w3.org/2000/svg"
  xmlns:xlink="http://www.w3.org/1999/xlink" x="0px" y="0px"
  viewBox="0 0 800 800" style="enable-background:new 0 0 800 800;" xml:space="preserve">
<style type="text/css">
	.st0{fill:#FFFFFF;}
	.st1{fill:#FD4885;}
</style>
  <svg xmlns="http://www.w3.org/2000/svg" version="1.1" viewBox="0 0 35 35" stroke="none">
	<g id="qr">	<rect width="100%" height="100%" fill="#FFFFFF"/>
	<path d="M1,1h1v1h-1z M2,1h1v1h-1z M3,1h1v1h-1z M4,1h1v1h-1z M5,1h1v1h-1z M6,1h1v1h-1z M7,1h1v1h-1z M11,1h1v1h-1z M13,1h1v1h-1z M14,1h1v1h-1z M15,1h1v1h-1z M16,1h1v1h-1z M18,1h1v1h-1z M23,1h1v1h-1z M27,1h1v1h-1z M28,1h1v1h-1z M29,1h1v1h-1z M30,1h1v1h-1z M31,1h1v1h-1z M32,1h1v1h-1z M33,1h1v1h-1z M1,2h1v1h-1z M7,2h1v1h-1z M11,2h1v1h-1z M13,2h1v1h-1z M15,2h1v1h-1z M16,2h1v1h-1z M21,2h1v1h-1z M22,2h1v1h-1z M25,2h1v1h-1z M27,2h1v1h-1z M33,2h1v1h-1z M1,3h1v1h-1z M3,3h1v1h-1z M4,3h1v1h-1z M5,3h1v1h-1z M7,3h1v1h-1z M9,3h1v1h-1z M10,3h1v1h-1z M12,3h1v1h-1z M13,3h1v1h-1z M15,3h1v1h-1z M17,3h1v1h-1z M19,3h1v1h-1z M20,3h1v1h-1z M21,3h1v1h-1z M22,3h1v1h-1z M23,3h1v1h-1z M27,3h1v1h-1z M29,3h1v1h-1z M30,3h1v1h-1z M31,3h1v1h-1z M33,3h1v1h-1z M1,4h1v1h-1z M3,4h1v1h-1z M4,4h1v1h-1z M5,4h1v1h-1z M7,4h1v1h-1z M9,4h1v1h-1z M10,4h1v1h-1z M11,4h1v1h-1z M13,4h1v1h-1z M15,4h1v1h-1z M16,4h1v1h-1z M18,4h1v1h-1z M19,4h1v1h-1z M20,4h1v1h-1z M21,4h1v1h-1z M23,4h1v1h-1z M25,4h1v1h-1z M27,4h1v1h-1z M29,4h1v1h-1z M30,4h1v1h-1z M31,4h1v1h-1z M33,4h1v1h-1z M1,5h1v1h-1z M3,5h1v1h-1z M4,5h1v1h-1z M5,5h1v1h-1z M7,5h1v1h-1z M10,5h1v1h-1z M12,5h1v1h-1z M13,5h1v1h-1z M17,5h1v1h-1z M18,5h1v1h-1z M20,5h1v1h-1z M24,5h1v1h-1z M27,5h1v1h-1z M29,5h1v1h-1z M30,5h1v1h-1z M31,5h1v1h-1z M33,5h1v1h-1z M1,6h1v1h-1z M7,6h1v1h-1z M11,6h1v1h-1z M12,6h1v1h-1z M13,6h1v1h-1z M15,6h1v1h-1z M18,6h1v1h-1z M20,6h1v1h-1z M23,6h1v1h-1z M25,6h1v1h-1z M27,6h1v1h-1z M33,6h1v1h-1z M1,7h1v1h-1z M2,7h1v1h-1z M3,7h1v1h-1z M4,7h1v1h-1z M5,7h1v1h-1z M6,7h1v1h-1z M7,7h1v1h-1z M9,7h1v1h-1z M11,7h1v1h-1z M13,7h1v1h-1z M15,7h1v1h-1z M17,7h1v1h-1z M19,7h1v1h-1z M21,7h1v1h-1z M23,7h1v1h-1z M25,7h1v1h-1z M27,7h1v1h-1z M28,7h1v1h-1z M29,7h1v1h-1z M30,7h1v1h-1z M31,7h1v1h-1z M32,7h1v1h-1z M33,7h1v1h-1z M10,8h1v1h-1z M13,8h1v1h-1z M14,8h1v1h-1z M15,8h1v1h-1z M16,8h1v1h-1z M17,8h1v1h-1z M19,8h1v1h-1z M20,8h1v1h-1z M23,8h1v1h-1z M24,8h1v1h-1z M4,9h1v1h-1z M5,9h1v1h-1z M7,9h1v1h-1z M8,9h1v1h-1z M10,9h1v1h-1z M12,9h1v1h-1z M16,9h1v1h-1z M18,9h1v1h-1z M20,9h1v1h-1z M22,9h1v1h-1z M23,9h1v1h-1z M24,9h1v1h-1z M25,9h1v1h-1z M30,9h1v1h-1z M31,9h1v1h-1z M4,10h1v1h-1z M5,10h1v1h-1z M9,10h1v1h-1z M13,10h1v1h-1z M14,10h1v1h-1z M15,10h1v1h-1z M16,10h1v1h-1z M17,10h1v1h-1z M18,10h1v1h-1z M23,10h1v1h-1z M27,10h1v1h-1z M28,10h1v1h-1z M29,10h1v1h-1z M30,10h1v1h-1z M32,10h1v1h-1z M6,11h1v1h-1z M7,11h1v1h-1z M9,11h1v1h-1z M15,11h1v1h-1z M21,11h1v1h-1z M22,11h1v1h-1z M26,11h1v1h-1z M27,11h1v1h-1z M30,11h1v1h-1z M31,11h1v1h-1z M33,11h1v1h-1z M3,12h1v1h-1z M4,12h1v1h-1z M5,12h1v1h-1z M6,12h1v1h-1z M8,12h1v1h-1z M12,12h1v1h-1z M13,12h1v1h-1z M14,12h1v1h-1z M15,12h1v1h-1z M17,12h1v1h-1z M19,12h1v1h-1z M20,12h1v1h-1z M24,12h1v1h-1z M27,12h1v1h-1z M28,12h1v1h-1z M29,12h1v1h-1z M32,12h1v1h-1z M5,13h1v1h-1z M7,13h1v1h-1z M9,13h1v1h-1z M16,13h1v1h-1z M17,13h1v1h-1z M19,13h1v1h-1z M20,13h1v1h-1z M22,13h1v1h-1z M23,13h1v1h-1z M24,13h1v1h-1z M25,13h1v1h-1z M28,13h1v1h-1z M29,13h1v1h-1z M32,13h1v1h-1z M33,13h1v1h-1z M1,14h1v1h-1z M2,14h1v1h-1z M3,14h1v1h-1z M4,14h1v1h-1z M5,14h1v1h-1z M8,14h1v1h-1z M9,14h1v1h-1z M10,14h1v1h-1z M11,14h1v1h-1z M13,14h1v1h-1z M16,14h1v1h-1z M18,14h1v1h-1z M21,14h1v1h-1z M22,14h1v1h-1z M23,14h1v1h-1z M24,14h1v1h-1z M26,14h1v1h-1z M31,14h1v1h-1z M2,15h1v1h-1z M3,15h1v1h-1z M4,15h1v1h-1z M6,15h1v1h-1z M7,15h1v1h-1z M9,15h1v1h-1z M10,15h1v1h-1z M12,15h1v1h-1z M14,15h1v1h-1z M16,15h1v1h-1z M17,15h1v1h-1z M18,15h1v1h-1z M19,15h1v1h-1z M24,15h1v1h-1z M26,15h1v1h-1z M28,15h1v1h-1z M29,15h1v1h-1z M32,15h1v1h-1z M33,15h1v1h-1z M2,16h1v1h-1z M3,16h1v1h-1z M4,16h1v1h-1z M6,16h1v1h-1z M13,16h1v1h-1z M15,16h1v1h-1z M16,16h1v1h-1z M18,16h1v1h-1z M19,16h1v1h-1z M20,16h1v1h-1z M21,16h1v1h-1z M22,16h1v1h-1z M26,16h1v1h-1z M27,16h1v1h-1z M29,16h1v1h-1z M33,16h1v1h-1z M2,17h1v1h-1z M4,17h1v1h-1z M5,17h1v1h-1z M7,17h1v1h-1z M8,17h1v1h-1z M13,17h1v1h-1z M15,17h1v1h-1z M16,17h1v1h-1z M19,17h1v1h-1z M22,17h1v1h-1z M23,17h1v1h-1z M26,17h1v1h-1z M29,17h1v1h-1z M30,17h1v1h-1z M32,17h1v1h-1z M33,17h1v1h-1z M3,18h1v1h-1z M4,18h1v1h-1z M5,18h1v1h-1z M8,18h1v1h-1z M9,18h1v1h-1z M10,18h1v1h-1z M12,18h1v1h-1z M13,18h1v1h-1z M15,18h1v1h-1z M16,18h1v1h-1z M17,18h1v1h-1z M18,18h1v1h-1z M19,18h1v1h-1z M20,18h1v1h-1z M22,18h1v1h-1z M23,18h1v1h-1z M24,18h1v1h-1z M26,18h1v1h-1z M27,18h1v1h-1z M30,18h1v1h-1z M31,18h1v1h-1z M33,18h1v1h-1z M2,19h1v1h-1z M5,19h1v1h-1z M6,19h1v1h-1z M7,19h1v1h-1z M8,19h1v1h-1z M9,19h1v1h-1z M14,19h1v1h-1z M19,19h1v1h-1z M28,19h1v1h-1z M31,19h1v1h-1z M32,19h1v1h-1z M3,20h1v1h-1z M4,20h1v1h-1z M5,20h1v1h-1z M8,20h1v1h-1z M9,20h1v1h-1z M14,20h1v1h-1z M17,20h1v1h-1z M20,20h1v1h-1z M21,20h1v1h-1z M23,20h1v1h-1z M26,20h1v1h-1z M28,20h1v1h-1z M29,20h1v1h-1z M4,21h1v1h-1z M5,21h1v1h-1z M6,21h1v1h-1z M7,21h1v1h-1z M9,21h1v1h-1z M11,21h1v1h-1z M12,21h1v1h-1z M15,21h1v1h-1z M16,21h1v1h-1z M18,21h1v1h-1z M20,21h1v1h-1z M23,21h1v1h-1z M24,21h1v1h-1z M27,21h1v1h-1z M32,21h1v1h-1z M1,22h1v1h-1z M4,22h1v1h-1z M6,22h1v1h-1z M9,22h1v1h-1z M10,22h1v1h-1z M11,22h1v1h-1z M12,22h1v1h-1z M16,22h1v1h-1z M17,22h1v1h-1z M20,22h1v1h-1z M23,22h1v1h-1z M25,22h1v1h-1z M27,22h1v1h-1z M28,22h1v1h-1z M29,22h1v1h-1z M30,22h1v1h-1z M1,23h1v1h-1z M3,23h1v1h-1z M5,23h1v1h-1z M7,23h1v1h-1z M9,23h1v1h-1z M12,23h1v1h-1z M14,23h1v1h-1z M15,23h1v1h-1z M16,23h1v1h-1z M17,23h1v1h-1z M20,23h1v1h-1z M21,23h1v1h-1z M23,23h1v1h-1z M24,23h1v1h-1z M26,23h1v1h-1z M27,23h1v1h-1z M28,23h1v1h-1z M29,23h1v1h-1z M31,23h1v1h-1z M32,23h1v1h-1z M1,24h1v1h-1z M5,24h1v1h-1z M8,24h1v1h-1z M12,24h1v1h-1z M13,24h1v1h-1z M15,24h1v1h-1z M16,24h1v1h-1z M18,24h1v1h-1z M19,24h1v1h-1z M20,24h1v1h-1z M21,24h1v1h-1z M24,24h1v1h-1z M25,24h1v1h-1z M27,24h1v1h-1z M29,24h1v1h-1z M30,24h1v1h-1z M32,24h1v1h-1z M33,24h1v1h-1z M1,25h1v1h-1z M2,25h1v1h-1z M4,25h1v1h-1z M5,25h1v1h-1z M6,25h1v1h-1z M7,25h1v1h-1z M10,25h1v1h-1z M14,25h1v1h-1z M16,25h1v1h-1z M23,25h1v1h-1z M24,25h1v1h-1z M25,25h1v1h-1z M26,25h1v1h-1z M27,25h1v1h-1z M28,25h1v1h-1z M29,25h1v1h-1z M30,25h1v1h-1z M32,25h1v1h-1z M33,25h1v1h-1z M9,26h1v1h-1z M11,26h1v1h-1z M12,26h1v1h-1z M13,26h1v1h-1z M16,26h1v1h-1z M18,26h1v1h-1z M19,26h1v1h-1z M21,26h1v1h-1z M22,26h1v1h-1z M23,26h1v1h-1z M25,26h1v1h-1z M29,26h1v1h-1z M31,26h1v1h-1z M33,26h1v1h-1z M1,27h1v1h-1z M2,27h1v1h-1z M3,27h1v1h-1z M4,27h1v1h-1z M5,27h1v1h-1z M6,27h1v1h-1z M7,27h1v1h-1z M9,27h1v1h-1z M10,27h1v1h-1z M11,27h1v1h-1z M12,27h1v1h-1z M13,27h1v1h-1z M14,27h1v1h-1z M16,27h1v1h-1z M18,27h1v1h-1z M19,27h1v1h-1z M20,27h1v1h-1z M25,27h1v1h-1z M27,27h1v1h-1z M29,27h1v1h-1z M33,27h1v1h-1z M1,28h1v1h-1z M7,28h1v1h-1z M11,28h1v1h-1z M12,28h1v1h-1z M13,28h1v1h-1z M14,28h1v1h-1z M15,28h1v1h-1z M18,28h1v1h-1z M20,28h1v1h-1z M22,28h1v1h-1z M23,28h1v1h-1z M25,28h1v1h-1z M29,28h1v1h-1z M31,28h1v1h-1z M33,28h1v1h-1z M1,29h1v1h-1z M3,29h1v1h-1z M4,29h1v1h-1z M5,29h1v1h-1z M7,29h1v1h-1z M9,29h1v1h-1z M10,29h1v1h-1z M12,29h1v1h-1z M16,29h1v1h-1z M17,29h1v1h-1z M18,29h1v1h-1z M19,29h1v1h-1z M22,29h1v1h-1z M23,29h1v1h-1z M24,29h1v1h-1z M25,29h1v1h-1z M26,29h1v1h-1z M27,29h1v1h-1z M28,29h1v1h-1z M29,29h1v1h-1z M31,29h1v1h-1z M33,29h1v1h-1z M1,30h1v1h-1z M3,30h1v1h-1z M4,30h1v1h-1z M5,30h1v1h-1z M7,30h1v1h-1z M9,30h1v1h-1z M10,30h1v1h-1z M11,30h1v1h-1z M12,30h1v1h-1z M19,30h1v1h-1z M20,30h1v1h-1z M21,30h1v1h-1z M23,30h1v1h-1z M24,30h1v1h-1z M25,30h1v1h-1z M30,30h1v1h-1z M32,30h1v1h-1z M1,31h1v1h-1z M3,31h1v1h-1z M4,31h1v1h-1z M5,31h1v1h-1z M7,31h1v1h-1z M10,31h1v1h-1z M12,31h1v1h-1z M13,31h1v1h-1z M14,31h1v1h-1z M15,31h1v1h-1z M18,31h1v1h-1z M20,31h1v1h-1z M22,31h1v1h-1z M23,31h1v1h-1z M29,31h1v1h-1z M31,31h1v1h-1z M32,31h1v1h-1z M33,31h1v1h-1z M1,32h1v1h-1z M7,32h1v1h-1z M10,32h1v1h-1z M11,32h1v1h-1z M12,32h1v1h-1z M13,32h1v1h-1z M18,32h1v1h-1z M20,32h1v1h-1z M23,32h1v1h-1z M24,32h1v1h-1z M25,32h1v1h-1z M26,32h1v1h-1z M29,32h1v1h-1z M30,32h1v1h-1z M32,32h1v1h-1z M1,33h1v1h-1z M2,33h1v1h-1z M3,33h1v1h-1z M4,33h1v1h-1z M5,33h1v1h-1z M6,33h1v1h-1z M7,33h1v1h-1z M11,33h1v1h-1z M13,33h1v1h-1z M14,33h1v1h-1z M16,33h1v1h-1z M17,33h1v1h-1z M18,33h1v1h-1z M21,33h1v1h-1z M22,33h1v1h-1z M26,33h1v1h-1z M28,33h1v1h-1z M32,33h1v1h-1z" fill="#7B314A"/>
</g></svg>
  <g id="Group">
	<rect id="bg" x="300" y="300" class="st0" width="200" height="200"/>
    <g id="mark" transform="translate(15.854739, 62.503691)">
		<path id="Fill-1" class="st1" d="M328.4,323.4c2.8-1.8,6-2.7,9.1-2.7c5.5,0,10.9,2.7,14.2,7.7c2.4,3.8,3.3,8.3,2.3,12.7
			c-0.8,3.8-2.9,7.2-5.9,9.6l26.5-19.1c-0.8-5.1-2.7-10-5.6-14.5c-5.5-8.4-13.9-14.2-23.7-16.3c-9.8-2.1-19.8-0.2-28.3,5.2
			L328.4,323.4L328.4,323.4z"/>
      <path id="Fill-3" class="st1" d="M416.5,346.7c-5.1-7.8-2.8-18.2,5-23.3l-27.9,20c0.8,5,2.6,10,5.6,14.5
			c7.2,11.1,19.2,17.1,31.6,17.1c7,0,14.1-2,20.4-6l-11.3-17.4c-3.8,2.5-8.3,3.3-12.7,2.3C422.7,353.1,418.9,350.5,416.5,346.7z"/>
      <path id="Fill-5" class="st1" d="M445.5,303.1c-2.3-1-4.6-1.7-7.1-2.2c-9.8-2.1-19.8-0.2-28.7,5.5l-2.2,1.6l-33,23.7l-26.5,19.1
			c-0.4,0.4-0.9,0.7-1.4,1c-0.9,0.6-1.8,1-2.7,1.4c-6.7,2.8-14.6,0.9-19.4-4.7c-0.4-0.5-0.9-1.1-1.2-1.6L306,358
			c5.5,8.4,13.9,14.2,23.7,16.3c0.7,0.1,1.3,0.3,2,0.4c0.6,0.1,1.3,0.2,1.9,0.3c1.3,0.1,2.7,0.2,4,0.2c7.2,0,14.3-2.1,20.8-6.3
			c0,0,0.7-0.5,2.2-1.6l33-23.7l27.9-20.1c0.4-0.3,0.9-0.5,1.3-0.8c0.1-0.1,0.3-0.1,0.4-0.2c0.3-0.2,0.7-0.3,1-0.5
			c0.8-0.3,1.3-0.5,1.8-0.6c0.6-0.2,1-0.3,1.5-0.3c0.8-0.1,1.2-0.2,1.7-0.2c0.6-0.1,1.1-0.1,1.5-0.1c0.5,0,0.8,0,1.1,0.1
			c0.2,0,0.5,0,0.7,0c0.6,0.1,1.1,0.2,1.7,0.3c0.6,0.1,1.1,0.3,1.6,0.4c0.5,0.2,1,0.3,1.5,0.5c0.2,0.1,0.3,0.1,0.5,0.2
			c0.3,0.1,0.6,0.3,1,0.5c0.2,0.1,0.3,0.2,0.5,0.3c0.3,0.2,0.6,0.3,0.8,0.5c0.2,0.1,0.3,0.2,0.5,0.3c0.3,0.2,0.5,0.4,0.8,0.6
			c0.2,0.1,0.3,0.2,0.4,0.4c0.3,0.2,0.5,0.5,0.8,0.7c0.1,0.1,0.3,0.2,0.4,0.4c0.3,0.3,0.5,0.6,0.8,0.9c0.1,0.1,0.2,0.2,0.2,0.3
			c0.3,0.4,0.6,0.8,0.9,1.3l17.4-11.2C458,310.8,452.3,306,445.5,303.1z"/>
      <path id="Fill-8" class="st1" d="M328.4,323.4l-11.3-17.4c-17.4,11.3-22.3,34.5-11.1,51.9l17.4-11.2c-0.9-1.5-1.6-3-2.1-4.6
			c-0.4-1.6-0.6-3.2-0.6-4.9C320.8,331.8,323.5,326.6,328.4,323.4"/>
      <path id="Fill-11" class="st1" d="M444.7,328.4c2.4,3.8,3.3,8.3,2.3,12.7c-0.9,4.4-3.5,8.2-7.3,10.6L451,369
			c8.4-5.5,14.2-13.9,16.3-23.7c0.3-1.4,0.5-2.8,0.6-4.2c0.1-1,0.2-1.9,0.2-2.9c0-0.1,0-0.2,0-0.3c0.1-7.4-2-14.6-6-20.9
			L444.7,328.4"/>
	</g>
</g>
</svg>
